<?xml version="1.0" encoding="utf-8"?>
<!-- Generator: Adobe Illustrator 17.0.1, SVG Export Plug-In . SVG Version: 6.00 Build 0)  -->
<!DOCTYPE svg PUBLIC "-//W3C//DTD SVG 1.1//EN" "http://www.w3.org/Graphics/SVG/1.1/DTD/svg11.dtd">
<svg version="1.1" id="圖層_1" xmlns="http://www.w3.org/2000/svg" xmlns:xlink="http://www.w3.org/1999/xlink" x="0px" y="0px"
	 width="595.919px" height="549.308px" viewBox="0 0 595.919 549.308" enable-background="new 0 0 595.919 549.308"
	 xml:space="preserve">
<g>
	<path fill="#FFFFFF" d="M79.926,62.335h152.466v262.868c0,0-13.001,84.712,82.734,69.865v98.685c0,0-237.564,35.806-235.2-164.183
		C82.29,129.581,79.926,62.335,79.926,62.335z"/>
	<rect x="378.949" y="204.686" fill="#FFFFFF" width="128.828" height="291.557"/>
	<g>
		<g>
			<path fill="#FFFFFF" d="M418.936,90.314c0,0-35.612-5.028-34.507,25.138s0,50.733,0,50.733s-1.369,19.196,34.507,15.54h44.812"/>
		</g>
		<g>
			<path fill="#FFFFFF" d="M413.388,90l50.359,0.314c0,0,35.612-5.028,34.507,25.138s0,50.733,0,50.733s1.369,19.196-34.507,15.54"
				/>
		</g>
	</g>
</g>
</svg>
